<svg width="46" height="46" viewBox="0 0 46 46" fill="none" xmlns="http://www.w3.org/2000/svg">
<path d="M23 0C10.3017 0 0 10.3017 0 23C0 35.6983 10.3017 46 23 46C35.6983 46 46 35.7096 46 23C46 10.2904 35.6983 0 23 0ZM37.6029 10.6016C40.2642 13.73 41.8482 17.6317 42.1208 21.7299C37.9757 21.5142 33.0163 21.5142 29.0396 21.8859C28.5364 20.6158 28.021 19.3703 27.4583 18.1721C32.0439 16.1842 35.5781 13.5721 37.6029 10.6016ZM23 3.83299C27.4675 3.82531 31.796 5.38564 35.2311 8.24201C33.1467 10.8767 29.8764 13.1706 25.8031 14.9017C23.575 10.7813 21.0111 7.23576 18.2768 4.44393C19.8198 4.04559 21.4064 3.84038 23 3.83299ZM14.3267 5.92969C17.0939 8.68455 19.6938 12.1931 21.9701 16.3002C17.6453 17.6217 12.6859 18.3795 7.39286 18.3795C6.38661 18.3795 5.405 18.3435 4.43469 18.2829C5.10964 15.6386 6.3412 13.1687 8.04708 11.0384C9.75296 8.90808 11.8939 7.16638 14.3267 5.92969ZM3.86893 22.0892C4.95938 22.1375 6.06112 22.1611 7.17518 22.1498C13.2127 22.0779 18.8313 21.1313 23.6592 19.5829C24.1144 20.5296 24.5457 21.4999 24.9529 22.4938C24.3696 22.6215 23.7967 22.7931 23.2392 23.0072C16.6391 25.7795 11.4404 30.2471 8.625 35.65C5.53782 32.1592 3.83349 27.6601 3.83299 23C3.83299 22.692 3.84531 22.3891 3.86893 22.0892ZM23 42.167C18.7417 42.1722 14.6044 40.7508 11.2484 38.1297C13.8 33.0748 18.3517 28.8886 24.0904 26.2939C24.6295 26.0424 25.3483 25.8391 26.1748 25.6594C26.8593 27.5514 27.4703 29.516 28.0076 31.5531C28.8102 34.6278 29.4013 37.7538 29.7768 40.9092C27.6134 41.7381 25.3167 42.1644 23 42.167ZM33.3623 39.1123C32.9875 35.9241 32.3909 32.766 31.5767 29.6608C31.166 28.1031 30.7029 26.5938 30.1998 25.1203C33.9609 24.8123 38.4654 24.8564 42.0469 25.1203C41.7313 27.9517 40.7879 30.677 39.2855 33.0975C37.7831 35.5181 35.7595 37.573 33.3623 39.1123Z" fill="#E7E7E8"/>
</svg>
