<svg width="49" height="49" viewBox="0 0 49 49" fill="none" xmlns="http://www.w3.org/2000/svg">
<path d="M24.0625 0C10.7744 0 0 11.0537 0 24.6748C0 35.5781 6.89648 44.8164 16.457 48.082C16.5911 48.1112 16.728 48.1256 16.8652 48.125C17.7568 48.125 18.1006 47.4697 18.1006 46.9004C18.1006 46.3096 18.0791 44.7627 18.0684 42.7002C17.2724 42.8868 16.4581 42.9841 15.6406 42.9902C11.0107 42.9902 9.95801 39.3916 9.95801 39.3916C8.8623 36.5449 7.2832 35.7822 7.2832 35.7822C5.18848 34.3105 7.27246 34.2676 7.43359 34.2676H7.44434C9.86133 34.4824 11.1289 36.8242 11.1289 36.8242C12.332 38.9297 13.9434 39.5205 15.3828 39.5205C16.3346 39.5015 17.2717 39.2818 18.1328 38.876C18.3477 37.2861 18.9707 36.2012 19.6582 35.5781C14.3193 34.9551 8.70117 32.8389 8.70117 23.3857C8.70117 20.6894 9.63574 18.4873 11.1719 16.7686C10.9248 16.1455 10.0977 13.6318 11.4082 10.2373C11.584 10.1952 11.7647 10.1772 11.9453 10.1836C12.8154 10.1836 14.7812 10.5166 18.0254 12.7725C21.9673 11.6696 26.1362 11.6696 30.0781 12.7725C33.3223 10.5166 35.2881 10.1836 36.1582 10.1836C36.3388 10.1772 36.5195 10.1952 36.6953 10.2373C38.0059 13.6318 37.1787 16.1455 36.9316 16.7686C38.4678 18.498 39.4023 20.7002 39.4023 23.3857C39.4023 32.8603 33.7734 34.9443 28.4131 35.5566C29.2725 36.3193 30.0459 37.8232 30.0459 40.1221C30.0459 43.4199 30.0137 46.084 30.0137 46.8896C30.0137 47.4697 30.3467 48.125 31.2383 48.125C31.3826 48.1256 31.5266 48.1112 31.668 48.082C41.2393 44.8164 48.125 35.5674 48.125 24.6748C48.125 11.0537 37.3506 0 24.0625 0Z" fill="#E7E7E8"/>
</svg>
