<svg width="46" height="46" viewBox="0 0 46 46" fill="none" xmlns="http://www.w3.org/2000/svg">
<path d="M42.321 0H3.93053C1.83281 0 0 1.50937 0 3.58245V42.0581C0 44.1425 1.83281 45.9999 3.93053 45.9999H42.3097C44.4187 45.9999 45.9999 44.1302 45.9999 42.0581V3.58245C46.0122 1.50937 44.4187 0 42.321 0ZM14.259 38.3432H7.66905V17.8537H14.259V38.3432ZM11.1919 14.7385H11.1447C9.0357 14.7385 7.67008 13.1685 7.67008 11.2032C7.67008 9.20204 9.07164 7.66905 11.2279 7.66905C13.3841 7.66905 14.7035 9.19075 14.7508 11.2032C14.7498 13.1685 13.3841 14.7385 11.1919 14.7385ZM38.3432 38.3432H31.7533V27.14C31.7533 24.4559 30.7943 22.6221 28.4101 22.6221C26.5886 22.6221 25.5105 23.8543 25.0309 25.0546C24.8513 25.4858 24.803 26.0731 24.803 26.6728V38.3432H18.2131V17.8537H24.803V20.7051C25.762 19.3395 27.2601 17.3742 30.746 17.3742C35.0719 17.3742 38.3442 20.2256 38.3442 26.373L38.3432 38.3432Z" fill="#E7E7E8"/>
</svg>
